<svg width="50" height="58" viewBox="0 0 50 58" fill="none" xmlns="http://www.w3.org/2000/svg">
<g id="Group 13 Copy 2">
<g id="Group 15">
<rect id="Rectangle" x="8.44873" y="49.1509" width="50" height="4" rx="2" transform="rotate(-55 8.44873 49.1509)" fill="#B1B4C5"/>
<g id="Group 12">
<g id="Group 14">
<path id="Rectangle Copy 2" fill-rule="evenodd" clip-rule="evenodd" d="M24.4761 12.3299C24.3004 11.3223 24.9784 10.3642 25.9871 10.1946L38.0639 8.16425C39.0641 7.99611 40.0123 8.6671 40.1864 9.66622C40.3621 10.6739 39.6841 11.632 38.6754 11.8016L26.5986 13.8319C25.5985 14 24.6502 13.329 24.4761 12.3299Z" fill="#B1B4C5"/>
<path id="Rectangle Copy 3" fill-rule="evenodd" clip-rule="evenodd" d="M40.8439 23.7909C39.8455 23.9689 38.8907 23.3074 38.7066 22.31L36.484 10.2672C36.2983 9.2613 36.9668 8.2965 37.9737 8.11692C38.9722 7.93886 39.927 8.60041 40.1111 9.59775L42.3337 21.6406C42.5193 22.6465 41.8509 23.6113 40.8439 23.7909Z" fill="#B1B4C5"/>
</g>
</g>
</g>
</g>
</svg>
