<svg width="50" height="58" viewBox="0 0 50 58" fill="none" xmlns="http://www.w3.org/2000/svg">
<g id="Group 13 Copy">
<g id="Group 15">
<rect id="Rectangle" width="50" height="4" rx="2" transform="matrix(0.573576 0.819152 0.819152 -0.573576 8.44873 8.84912)" fill="#B1B4C5"/>
<g id="Group 12">
<g id="Group 14">
<path id="Rectangle Copy 2" fill-rule="evenodd" clip-rule="evenodd" d="M24.4761 45.6701C24.3004 46.6777 24.9784 47.6358 25.9871 47.8054L38.0639 49.8358C39.0641 50.0039 40.0123 49.3329 40.1864 48.3338C40.3621 47.3261 39.6841 46.368 38.6754 46.1984L26.5986 44.1681C25.5985 44 24.6502 44.671 24.4761 45.6701Z" fill="#B1B4C5"/>
<path id="Rectangle Copy 3" fill-rule="evenodd" clip-rule="evenodd" d="M40.8439 34.2091C39.8455 34.0311 38.8907 34.6926 38.7066 35.69L36.484 47.7328C36.2983 48.7387 36.9668 49.7035 37.9737 49.8831C38.9722 50.0611 39.927 49.3996 40.1111 48.4023L42.3337 36.3594C42.5193 35.3535 41.8509 34.3887 40.8439 34.2091Z" fill="#B1B4C5"/>
</g>
</g>
</g>
</g>
</svg>
